<?xml version="1.0" encoding="iso-8859-1"?>
<!-- Generator: Adobe Illustrator 19.0.0, SVG Export Plug-In . SVG Version: 6.00 Build 0)  -->
<svg version="1.1" id="Capa_1" xmlns="http://www.w3.org/2000/svg" xmlns:xlink="http://www.w3.org/1999/xlink" x="0px" y="0px"
	 viewBox="0 0 461.2 461.2" style="enable-background:new 0 0 461.2 461.2;" xml:space="preserve">
<path style="fill:#FDC75B;" d="M252.4,230.65c0-12.1-9.8-21.9-21.9-21.9s-21.9,9.8-21.9,21.9c0,12.1,9.8,21.9,21.9,21.9
	C242.6,252.55,252.4,242.75,252.4,230.65z M451.1,230.65c0,59-23.1,112.5-60.8,152.1l-1.1-1c-37.7-45.7-94.8-74.8-158.7-74.8
	c-63,0-120.3,29.3-158,73.9l-1.6,2c-37.8-39.6-61-93.2-61-152.2c0-121.8,98.7-220.6,220.6-220.6S451.1,108.85,451.1,230.65z"/>
<g>
	<path style="fill:#ED664C;" d="M389.2,381.75l1.1,1c-40.2,42.2-96.9,68.5-159.7,68.5s-119.5-26.2-159.7-68.4l1.6-2
		c37.7-44.6,95.1-73.9,158-73.9C294.4,306.95,351.5,336.05,389.2,381.75z"/>
	<circle style="fill:#ED664C;" cx="230.5" cy="230.65" r="21.9"/>
</g>
<path d="M230.5,0.05c-61.6,0-119.5,24-163,67.5S0,169.05,0,230.55c0,59.5,22.6,116,63.7,159.1l0,0c21.3,22.4,46.4,39.9,74.6,52.3
	c29.2,12.8,60.2,19.2,92.3,19.2s63.2-6.5,92.4-19.3c28.2-12.3,53.3-29.9,74.6-52.3c41-43.1,63.6-99.5,63.6-159
	c0-61.6-24-119.5-67.5-163C350,24.05,292.1,0.05,230.5,0.05z M314.9,423.65c-26.6,11.7-55,17.6-84.4,17.6
	c-29.3,0-57.7-5.9-84.3-17.6c-23-10.1-43.7-23.9-61.8-41.4c17.3-19.1,38.6-35,61.9-46.2c26.7-12.8,55-19.2,84.2-19.2
	c56.1,0,108.8,23.8,146,65.4C358.5,399.75,337.8,413.55,314.9,423.65z M390.3,367.75c-40.9-45.2-98.6-70.9-159.8-70.9
	c-32.2,0-63.4,7.1-92.8,21.2c-25.2,12.1-48.2,29.1-67,49.6c-32.8-38.1-50.8-86.3-50.8-137c0-116.1,94.5-210.6,210.6-210.6
	s210.6,94.5,210.6,210.6C441.1,281.35,423.1,329.65,390.3,367.75z"/>
<path d="M230.5,132.15c5.5,0,10-4.5,10-10v-60.2c0-5.5-4.5-10-10-10s-10,4.5-10,10v60.2C220.5,127.75,225,132.15,230.5,132.15z"/>
<path d="M329,230.65c0,5.5,4.5,10,10,10h60.2c5.5,0,10-4.5,10-10s-4.5-10-10-10H339C333.4,220.65,329,225.15,329,230.65z"/>
<path d="M122,220.65H61.8c-5.5,0-10,4.5-10,10s4.5,10,10,10H122c5.5,0,10-4.5,10-10S127.6,220.65,122,220.65z"/>
<path d="M118.1,104.15c-3.9-3.9-10.2-3.9-14.1,0c-3.9,3.9-3.9,10.2,0,14.1l43,43c2,2,4.5,2.9,7.1,2.9s5.1-1,7.1-2.9
	c3.9-3.9,3.9-10.2,0-14.1L118.1,104.15z"/>
<path d="M357,118.25c3.9-3.9,3.9-10.2,0-14.1c-3.9-3.9-10.2-3.9-14.1,0l-98.1,98.1c-4.3-2.2-9.2-3.4-14.3-3.4
	c-17.6,0-31.9,14.3-31.9,31.9s14.3,31.9,31.9,31.9s31.9-14.3,31.9-31.9c0-5.1-1.2-10-3.4-14.3L357,118.25z M230.5,242.55
	c-6.5,0-11.9-5.3-11.9-11.9s5.3-11.9,11.9-11.9c6.6,0,11.9,5.3,11.9,11.9C242.4,237.25,237,242.55,230.5,242.55z"/>
<g>
</g>
<g>
</g>
<g>
</g>
<g>
</g>
<g>
</g>
<g>
</g>
<g>
</g>
<g>
</g>
<g>
</g>
<g>
</g>
<g>
</g>
<g>
</g>
<g>
</g>
<g>
</g>
<g>
</g>
</svg>
