<?xml version="1.0" encoding="iso-8859-1"?>
<!-- Generator: Adobe Illustrator 19.0.0, SVG Export Plug-In . SVG Version: 6.00 Build 0)  -->
<svg version="1.1" id="Capa_1" xmlns="http://www.w3.org/2000/svg" xmlns:xlink="http://www.w3.org/1999/xlink" x="0px" y="0px"
	 viewBox="0 0 477.832 477.832" style="enable-background:new 0 0 477.832 477.832;" xml:space="preserve">
<circle style="fill:#F3F3F3;" cx="238.908" cy="238.916" r="161.431"/>
<g>
	<path style="fill:#454545;" d="M229.542,29.071V1.544h5.406l11.264,18.387V1.544h5.165v27.528h-5.572l-11.098-17.95v17.95H229.542z
		"/>
	<path style="fill:#454545;" d="M229.271,466.846l5.406-0.527c0.331,1.807,0.994,3.147,1.988,4.006
		c0.994,0.843,2.334,1.28,4.021,1.28c1.792,0,3.132-0.376,4.051-1.144c0.904-0.753,1.355-1.641,1.355-2.65
		c0-0.648-0.196-1.205-0.572-1.656c-0.376-0.452-1.054-0.858-2.003-1.19c-0.648-0.226-2.138-0.632-4.442-1.205
		c-2.982-0.738-5.075-1.641-6.28-2.726c-1.687-1.521-2.53-3.358-2.53-5.542c0-1.4,0.392-2.711,1.19-3.93
		c0.798-1.22,1.943-2.153,3.433-2.786c1.491-0.632,3.298-0.964,5.421-0.964c3.448,0,6.054,0.753,7.8,2.274s2.665,3.539,2.756,6.069
		l-5.557,0.241c-0.241-1.416-0.753-2.424-1.536-3.057c-0.783-0.617-1.958-0.934-3.524-0.934c-1.611,0-2.876,0.331-3.795,0.994
		c-0.587,0.422-0.888,0.994-0.888,1.702c0,0.648,0.271,1.205,0.828,1.672c0.708,0.587,2.409,1.205,5.105,1.837
		c2.711,0.632,4.698,1.295,5.993,1.988c1.295,0.693,2.304,1.611,3.042,2.801c0.738,1.19,1.099,2.65,1.099,4.382
		c0,1.581-0.437,3.057-1.31,4.427c-0.873,1.37-2.123,2.394-3.72,3.072c-1.596,0.678-3.599,1.009-5.993,1.009
		c-3.479,0-6.159-0.798-8.011-2.409C230.746,472.267,229.632,469.918,229.271,466.846z"/>
	<path style="fill:#454545;" d="M6.566,252.68L0,225.152h5.692l4.156,18.914l5.03-18.914h6.611l4.819,19.23l4.232-19.23h5.602
		l-6.686,27.528h-5.918l-5.481-20.585l-5.466,20.585H6.566z"/>
	<path style="fill:#454545;" d="M456.9,252.68v-27.528h20.405v4.653h-14.848v6.099h13.824v4.638h-13.824v7.499h15.375v4.638
		L456.9,252.68L456.9,252.68z"/>
</g>
<g>
	<circle style="fill:#CACACA;" cx="238.908" cy="238.916" r="123.708"/>
	<path style="fill:#CACACA;" d="M238.908,69.534c-93.395,0-169.367,75.987-169.367,169.382c0,93.38,75.972,169.367,169.367,169.367
		s169.367-75.987,169.367-169.367C408.275,145.521,332.303,69.534,238.908,69.534z M238.908,392.456
		c-84.661,0-153.54-68.879-153.54-153.555s68.879-153.54,153.54-153.54s153.555,68.879,153.555,153.54
		C392.463,323.576,323.569,392.456,238.908,392.456z"/>
</g>
<polygon style="fill:#3AA2EB;" points="344.727,133.097 238.908,199.085 133.09,133.097 199.078,238.916 133.09,344.734 
	238.908,278.746 344.727,344.734 278.739,238.916 "/>
<g>
	<polygon style="fill:#168DE2;" points="344.727,133.097 238.908,238.916 278.739,238.916 	"/>
	<polygon style="fill:#168DE2;" points="238.908,238.916 238.908,278.746 344.727,344.734 	"/>
	<polygon style="fill:#168DE2;" points="133.09,344.734 238.908,238.916 199.078,238.916 	"/>
	<polygon style="fill:#168DE2;" points="133.09,133.097 238.908,238.916 238.908,199.085 	"/>
</g>
<polygon style="fill:#ED6262;" points="273.905,203.919 238.908,52.954 203.912,203.919 52.947,238.916 203.912,273.912 
	238.908,424.877 273.905,273.912 424.87,238.916 "/>
<g>
	<polygon style="fill:#E95353;" points="238.908,52.954 238.908,238.916 273.905,203.919 	"/>
	<polygon style="fill:#E95353;" points="238.908,238.916 273.905,273.912 424.87,238.916 	"/>
	<polygon style="fill:#E95353;" points="238.908,424.877 238.908,238.916 203.912,273.912 	"/>
	<polygon style="fill:#E95353;" points="52.947,238.916 238.908,238.916 203.912,203.919 	"/>
</g>
<g>
</g>
<g>
</g>
<g>
</g>
<g>
</g>
<g>
</g>
<g>
</g>
<g>
</g>
<g>
</g>
<g>
</g>
<g>
</g>
<g>
</g>
<g>
</g>
<g>
</g>
<g>
</g>
<g>
</g>
</svg>
