<svg id="Layer_5" enable-background="new 0 0 64 64" height="512" viewBox="0 0 64 64" width="512" xmlns="http://www.w3.org/2000/svg"><g><g><g><path d="m42.17 49.83c.23.22.48.42.75.58v.01c-.14.6-.46 1.15-.92 1.55-.33.3-.73.52-1.18.65l-3.61.73c-1.87.38-3.21 2.02-3.21 3.92v4.73h-4c-1.1 0-2-.9-2-2v-16c0-.55.22-1.05.59-1.41.36-.37.86-.59 1.41-.59v-2.67c0-.73.6-1.33 1.33-1.33.42 0 .82.2 1.07.53l2.6 3.47h2.18c.21.59.59 1.11 1.06 1.53l.8.72c-.62.34-1.04 1-1.04 1.75 0 .55.22 1.05.59 1.41.36.37.86.59 1.41.59h1.13c.18.7.55 1.33 1.04 1.83z" fill="#e6e9ed"/></g><g><path d="m62 44v16c0 1.1-.9 2-2 2h-4v-4.73c0-1.9-1.34-3.54-3.21-3.92l-3.61-.73c-.45-.13-.85-.35-1.18-.65-.46-.4-.78-.95-.92-1.55v-.01c.88-.53 1.53-1.39 1.79-2.41h1.13c1.1 0 2-.9 2-2 0-.55-.22-1.05-.59-1.41-.13-.14-.28-.25-.45-.34l.8-.72c.47-.42.85-.94 1.06-1.53h7.18c1.1 0 2 .9 2 2z" fill="#e6e9ed"/></g><g><path d="m12 9v2 1.19c0 1.79-.85 3.42-2.12 4.69-.54.54-.88 1.29-.88 2.12 0 .19.02.38.06.56-.66.72-1.06 1.67-1.06 2.71v7.73h-4c-1.1 0-2-.9-2-2v-18c0-1.1.9-2 2-2h8.07.01c-.06.32-.08.66-.08 1z" fill="#e6e9ed"/></g><g><path d="m25.93 8h7.24c-.11.31-.17.65-.17 1 0 1.13.63 2.12 1.55 2.63-.34.36-.55.84-.55 1.37 0 .55.22 1.05.59 1.41.36.37.86.59 1.41.59h1.13c.18.71.54 1.33 1.04 1.83.23.22.48.42.75.58v.01c-.15.66-.52 1.24-1.05 1.66-.3.24-.66.43-1.05.54l-3.61.73c-1.87.38-3.21 2.02-3.21 3.92v-2c0-1.04-.4-1.99-1.06-2.71.04-.18.06-.37.06-.56 0-.83-.34-1.58-.88-2.12-1.27-1.27-2.12-2.9-2.12-4.69v-1.19-2c0-.34-.02-.67-.08-1z" fill="#e6e9ed"/></g><g><path d="m58 10v18c0 1.1-.9 2-2 2h-4v-5.73c0-1.9-1.34-3.54-3.21-3.92l-3.61-.73c-.39-.11-.75-.3-1.05-.54-.53-.42-.9-1-1.05-1.66v-.01c.88-.53 1.53-1.39 1.79-2.41h1.13c1.1 0 2-.9 2-2 0-.53-.2-1.01-.55-1.37.92-.51 1.55-1.5 1.55-2.63 0-.35-.06-.69-.17-1h7.17c1.1 0 2 .9 2 2z" fill="#e6e9ed"/></g><g><path d="m56 57.27v4.73h-22v-4.73c0-1.9 1.34-3.54 3.21-3.92l3.61-.73c.45-.13.85-.35 1.18-.65v.03c0 1.66 1.34 3 3 3 .83 0 1.58-.34 2.12-.88s.88-1.29.88-2.12v-.03c.33.3.73.52 1.18.65l3.61.73c1.87.38 3.21 2.02 3.21 3.92z" fill="#b4dd7f"/></g><g><path d="m28.94 19.56c.66.72 1.06 1.67 1.06 2.71v2 5.73h-6v2.67c0 .73-.6 1.33-1.33 1.33h-.12c-.35 0-.69-.14-.94-.39l-3.61-3.61h-10v-7.73c0-1.04.4-1.99 1.06-2.71.56-.61 1.3-1.04 2.15-1.21l2.98-.6.81 7.25 4-4 4 4 .81-7.25 2.98.6c.85.17 1.59.6 2.15 1.21z" fill="#ff826e"/></g><g><path d="m23.81 17.75-.81 7.25-4-4 3.13-3.92c.3.24.66.43 1.05.54z" fill="#fc6e51"/></g><g><path d="m15.87 17.08 3.13 3.92-4 4-.81-7.25.63-.13c.39-.11.75-.3 1.05-.54z" fill="#fc6e51"/></g><g><path d="m52 24.27v5.73h-22v-5.73c0-1.9 1.34-3.54 3.21-3.92l3.61-.73c.39-.11.75-.3 1.05-.54l3.13 3.92 3.13-3.92c.3.24.66.43 1.05.54l3.61.73c1.87.38 3.21 2.02 3.21 3.92z" fill="#75b1f2"/></g><g><path d="m26 12.19c0 1.79.85 3.42 2.12 4.69.54.54.88 1.29.88 2.12 0 .19-.02.38-.06.56-.56-.61-1.3-1.04-2.15-1.21l-2.98-.6-.63-.13c-.39-.11-.75-.3-1.05-.54-.53-.42-.9-1-1.05-1.66v-.01c.88-.53 1.53-1.39 1.79-2.41h1.13c.55 0 1.05-.22 1.41-.59.37-.36.59-.86.59-1.41z" fill="#656d78"/></g><g><path d="m16.92 15.42c-.15.66-.52 1.24-1.05 1.66-.3.24-.66.43-1.05.54l-.63.13-2.98.6c-.85.17-1.59.6-2.15 1.21-.04-.18-.06-.37-.06-.56 0-.83.34-1.58.88-2.12 1.27-1.27 2.12-2.9 2.12-4.69v-1.19c0 .55.22 1.05.59 1.41.36.37.86.59 1.41.59h1.13c.18.7.55 1.33 1.04 1.83.23.22.48.42.75.58z" fill="#656d78"/></g><g><path d="m26 9v2c0-1.1-.9-2-2-2h-1c0-.55-.45-1-1-1h-6c-.55 0-1 .45-1 1h-1c-1.1 0-2 .9-2 2v-2c0-.34.02-.68.08-1 .21-1.54.92-2.9 1.97-3.95 1.27-1.27 3.01-2.05 4.95-2.05 3.53 0 6.44 2.6 6.92 6 .06.33.08.66.08 1z" fill="#656d78"/></g><g><path d="m36 11c-.57 0-1.09.24-1.45.63-.92-.51-1.55-1.5-1.55-2.63 0-.35.06-.69.17-1 .31-.85.99-1.52 1.85-1.82-.01-.06-.02-.12-.02-.18 0-1.66 1.34-3 3-3 .24 0 .48.04.7.09.55-.66 1.37-1.09 2.3-1.09s1.75.43 2.3 1.09c.22-.05.46-.09.7-.09 1.66 0 3 1.34 3 3 0 .06-.01.12-.02.18.86.3 1.54.97 1.85 1.82.11.31.17.65.17 1 0 1.13-.63 2.12-1.55 2.63-.01-.01-.03-.03-.04-.04-.36-.37-.86-.59-1.41-.59h-1-1.76c-1.47 0-2.92-.34-4.24-1-.74 0-1.38.4-1.73 1z" fill="#656d78"/></g><g><path d="m51.48 37.86-1.55-1.16c-.6-.46-1.34-.7-2.09-.7h-.4c-.91 0-1.79.36-2.44 1-.65-.64-1.53-1-2.44-1h-.4c-.75 0-1.49.24-2.09.7l-1.55 1.16c-.96.72-1.52 1.85-1.52 3.04 0 .16.01.31.03.46.03.22.08.44.15.64.21.59.59 1.11 1.06 1.53l.8.72c.28-.16.61-.25.96-.25h1.27c.35-.6.99-1 1.73-1h4c.842 0 1.566.527 1.86 1.267l2.1-.017.8-.72c.47-.42.85-.94 1.06-1.53.07-.2.12-.42.15-.64.02-.15.03-.3.03-.46 0-1.19-.56-2.32-1.52-3.04z" fill="#b27946"/></g><g><path d="m47.08 50.42c.14.6.46 1.15.92 1.55v.03c0 .83-.34 1.58-.88 2.12s-1.29.88-2.12.88c-1.66 0-3-1.34-3-3v-.03c.46-.4.78-.95.92-1.55v-.01c.61.38 1.32.59 2.08.59s1.47-.21 2.08-.59z" fill="#f0d0b4"/></g><g><path d="m48.87 48c-.26 1.02-.91 1.88-1.79 2.41-.61.38-1.32.59-2.08.59s-1.47-.21-2.08-.59c-.27-.16-.52-.36-.75-.58-.49-.5-.86-1.13-1.04-1.83-.09-.32-.13-.65-.13-1v-2c0-.36.1-.71.27-1 .35-.6.99-1 1.73-1h4c1.1 0 2 .9 2 2v2c0 .35-.04.68-.13 1z" fill="#f0d0b4"/></g><g><path d="m41 47c0 .35.04.68.13 1h-1.13c-.55 0-1.05-.22-1.41-.59-.37-.36-.59-.86-.59-1.41 0-.75.42-1.41 1.04-1.75.28-.16.61-.25.96-.25h1.27c-.17.29-.27.64-.27 1z" fill="#f0d0b4"/></g><g><path d="m49 47c0 .35-.04.68-.13 1h1.13c.55 0 1.05-.22 1.41-.59.37-.36.59-.86.59-1.41 0-.75-.42-1.41-1.04-1.75-.28-.16-.61-.25-.96-.25h-1.27c.17.29.27.64.27 1z" fill="#f0d0b4"/></g><g><path d="m48 13c0 1.1-.9 2-2 2h-1.13c.09-.32.13-.65.13-1v-3h1c.55 0 1.05.22 1.41.59.01.01.03.03.04.04.35.36.55.84.55 1.37z" fill="#f0d0b4"/></g><g><path d="m43.08 17.42c.15.66.52 1.24 1.05 1.66l-3.13 3.92-3.13-3.92c.53-.42.9-1 1.05-1.66v-.01c1.92.59 2 .59 2.08.59.76 0 1.48-.21 2.08-.59z" fill="#f0d0b4"/></g><g><path d="m45 11v3c0 .35-.04.68-.13 1-.26 1.02-.91 1.88-1.79 2.41-.6.38-1.32.59-2.08.59-.08 0-.16 0-2.08-.59-.27-.16-.52-.36-.75-.58-.5-.5-.86-1.12-1.04-1.83-.09-.32-.13-.65-.13-1v-2c0-.36.1-.71.27-1 .35-.6.99-1 1.73-1 1.32.66 2.77 1 4.24 1z" fill="#f0d0b4"/></g><g><path d="m37 14c0 .35.04.68.13 1h-1.13c-.55 0-1.05-.22-1.41-.59-.37-.36-.59-.86-.59-1.41 0-.53.21-1.01.55-1.37.36-.39.88-.63 1.45-.63h1.27c-.17.29-.27.64-.27 1z" fill="#f0d0b4"/></g><g><path d="m26 11c0 .55-.22 1.05-.59 1.41-.36.37-.86.59-1.41.59h-1.13c.09-.32.13-.65.13-1v-3h1c1.1 0 2 .9 2 2z" fill="#f0d0b4"/></g><g><path d="m21.08 15.42c.15.66.52 1.24 1.05 1.66l-3.13 3.92-3.13-3.92c.53-.42.9-1 1.05-1.66v-.01c1.92.59 2 .59 2.08.59.76 0 1.48-.21 2.08-.59z" fill="#f0d0b4"/></g><g><path d="m23 9v3c0 .35-.04.68-.13 1-.26 1.02-.91 1.88-1.79 2.41-.6.38-1.32.59-2.08.59-.08 0-.16 0-2.08-.59-.27-.16-.52-.36-.75-.58-.49-.5-.86-1.13-1.04-1.83-.09-.32-.13-.65-.13-1v-3c0-.55.45-1 1-1h6c.55 0 1 .45 1 1z" fill="#f0d0b4"/></g><g><path d="m15 9v3c0 .35.04.68.13 1h-1.13c-.55 0-1.05-.22-1.41-.59-.37-.36-.59-.86-.59-1.41 0-1.1.9-2 2-2z" fill="#f0d0b4"/></g></g><g><path d="m59 28v-18c0-1.654-1.346-3-3-3h-6.543c-.353-.604-.861-1.113-1.484-1.466-.244-2.1-2.102-3.736-4.325-3.516-1.459-1.306-3.836-1.306-5.295 0-2.219-.228-4.081 1.416-4.325 3.516-.623.353-1.132.862-1.485 1.466h-5.807c-.891-3.445-4.017-6-7.736-6s-6.845 2.555-7.737 6h-7.263c-1.654 0-3 1.346-3 3v18c0 1.654 1.346 3 3 3h13.586l3.316 3.316c.44.44 1.026.684 1.65.684h.114c1.287 0 2.334-1.047 2.334-2.333v-1.667h31c1.654 0 3-1.346 3-3zm-9-19h6c.552 0 1 .449 1 1v18c0 .551-.448 1-1 1h-3v-4.727c0-2.371-1.687-4.432-4.01-4.901l-3.54-.712c-.501-.143-.914-.479-1.17-.917.548-.481.999-1.067 1.296-1.743h.424c1.654 0 3-1.346 3-3 0-.398-.081-.776-.222-1.123.77-.744 1.222-1.777 1.222-2.877zm-16.594 12.332 3.692-.749c.183-.052.36-.119.531-.195l3.371 4.213 3.378-4.222c.192.087.39.164.599.223l3.616.73c1.395.282 2.407 1.519 2.407 2.941v4.727h-20v-4.727c0-1.422 1.012-2.659 2.406-2.941zm10.594-7.332c0 1.654-1.346 3-3 3s-3-1.346-3-3v-2c0-.486.349-.893.81-.982 1.379.643 2.904.982 4.426.982h.764zm-3 5c.541 0 1.052-.108 1.541-.268.082.141.17.277.268.406l-1.809 2.261-1.807-2.259c.098-.13.186-.266.268-.408.488.16.999.268 1.539.268zm5-7c.552 0 1 .449 1 1s-.448 1-1 1zm-10.653-4.877.706-.246-.036-.747c-.003-.057-.01-.112-.017-.13 0-1.103.897-2 2-2 .139 0 .288.021.469.064l.605.146.398-.479c.771-.929 2.283-.929 3.055 0l.398.479.605-.146c.182-.043.331-.064.47-.064 1.103 0 2 .897 2 1.962l-.053.914.706.246c.806.281 1.347 1.036 1.347 1.878 0 .524-.211 1.015-.564 1.382-.429-.236-.913-.382-1.436-.382h-1-1.764c-1.309 0-2.619-.309-3.789-.895l-.211-.105h-.236c-.883 0-1.67.391-2.22 1h-.78c-.523 0-1.007.146-1.436.382-.353-.368-.564-.858-.564-1.382 0-.842.541-1.597 1.347-1.877zm.653 6.877c-.552 0-1-.449-1-1s.448-1 1-1zm-4-5c0 1.099.452 2.132 1.223 2.877-.141.347-.223.725-.223 1.123 0 1.654 1.346 3 3 3h.424c.297.677.749 1.263 1.297 1.744-.252.436-.649.768-1.095.897l-3.616.73c-.889.18-1.681.595-2.325 1.168-.172-.461-.417-.886-.711-1.275.006-.087.026-.177.026-.264 0-1.069-.416-2.073-1.172-2.828-.834-.834-1.828-2.203-1.828-3.986v-3.186zm-13 10.399-1.807-2.259c.098-.13.186-.266.268-.408.488.16.999.268 1.539.268.541 0 1.052-.108 1.541-.268.082.141.17.277.268.406zm-5-7.399c-.552 0-1-.449-1-1s.448-1 1-1zm-1.193 1.749c.366.16.769.251 1.193.251h.424c.297.677.749 1.263 1.297 1.744-.252.436-.649.768-1.095.897l-3.616.73c-.108.022-.207.064-.312.092 1.068-1.105 1.789-2.382 2.109-3.714zm9.193-1.749c0 1.654-1.346 3-3 3s-3-1.346-3-3v-3l6-.001zm-6.37 6.388 2.03 2.538-1.896 1.896-.478-4.306c.116-.04.233-.078.344-.128zm6.748-.01c.109.049.223.09.338.13l-.479 4.313-1.896-1.896zm1.072-1.718c-.501-.143-.914-.479-1.17-.917.548-.481.999-1.067 1.296-1.743h.424c.424 0 .827-.091 1.193-.251.32 1.331 1.041 2.609 2.109 3.715-.105-.029-.204-.07-.312-.092zm.55-6.66c.552 0 1 .449 1 1s-.448 1-1 1zm-5-7c3.024 0 5.526 2.251 5.935 5.164-.296-.098-.607-.164-.935-.164h-.278c-.347-.595-.985-1-1.722-1h-6c-.737 0-1.375.405-1.722 1h-.278c-.328 0-.639.066-.935.164.409-2.913 2.911-5.164 5.935-5.164zm-16 25v-18c0-.551.448-1 1-1h7v3.186c0 1.784-.994 3.152-1.828 3.986-.756.755-1.172 1.759-1.172 2.828 0 .087.02.177.026.266-.641.846-1.026 1.888-1.026 3.007v6.727h-3c-.552 0-1-.449-1-1zm20 1v3.667c0 .184-.149.333-.333.333h-.114c-.089 0-.173-.035-.236-.098l-3.903-3.902h-9.414v-6.727c0-1.422 1.012-2.659 2.406-2.941l1.914-.388.916 8.235 4.764-4.765 4.764 4.764.915-8.233 1.915.387c1.394.282 2.406 1.519 2.406 2.941v2 4.727z"/><path d="m60 41h-6.006c.001-.032.006-.064.006-.096 0-1.506-.719-2.944-1.924-3.847l-1.546-1.16c-.771-.579-1.727-.897-2.692-.897h-.395c-.879 0-1.722.253-2.443.723-.722-.47-1.564-.723-2.443-.723h-.395c-.965 0-1.921.318-2.691.897l-1.547 1.16c-1.205.903-1.924 2.341-1.924 3.847 0 .032.005.063.006.096h-.506l-2.3-3.066c-.438-.585-1.136-.934-1.867-.934-1.286 0-2.333 1.047-2.333 2.333v1.838c-1.164.413-2 1.525-2 2.829v16c0 1.654 1.346 3 3 3h30c1.654 0 3-1.346 3-3v-16c0-1.654-1.346-3-3-3zm-10 4c.552 0 1 .448 1 1s-.448 1-1 1zm-10.877-6.343 1.548-1.16c.433-.325.948-.497 1.491-.497h.395c.655 0 1.274.253 1.743.714l.7.688.7-.688c.469-.461 1.088-.714 1.743-.714h.395c.543 0 1.059.172 1.492.497l1.547 1.16c.703.528 1.123 1.367 1.123 2.247 0 .11-.006.221-.021.333-.065.547-.38 1.097-.886 1.549l-.355.317c-.237-.061-.482-.103-.738-.103h-.78c-.549-.609-1.337-1-2.22-1h-4c-.883 0-1.67.391-2.22 1h-.78c-.257 0-.502.042-.74.103l-.353-.316c-.507-.453-.821-1.003-.888-1.554-.013-.108-.019-.218-.019-.329 0-.88.42-1.719 1.123-2.247zm15.877 22.343h-20v-3.728c0-1.422 1.012-2.659 2.405-2.94l3.694-.749c.069-.02.134-.049.201-.073.598 1.459 2.029 2.49 3.7 2.49 1.67 0 3.1-1.029 3.698-2.497.093.034.184.072.28.1l3.615.729c1.395.281 2.407 1.519 2.407 2.94zm-7-14c0 1.654-1.346 3-3 3s-3-1.346-3-3v-2c0-.552.448-1 1-1h4c.552 0 1 .448 1 1zm-1.033 5.325c-.156.947-.976 1.675-1.967 1.675-.989 0-1.808-.724-1.967-1.669.159-.186.303-.385.427-.599.488.16.999.268 1.54.268s1.053-.108 1.541-.268c.123.211.267.408.426.593zm-6.967-5.325c-.552 0-1-.448-1-1s.448-1 1-1zm-11 13v-16c0-.552.448-1 1-1h1v-3.667c0-.288.429-.429.601-.2l2.899 3.867h2.044c.256.458.598.887 1.018 1.265-.351.491-.562 1.087-.562 1.735 0 1.654 1.346 3 3 3h.424c.297.677.749 1.263 1.297 1.744-.252.436-.649.768-1.094.897l-3.617.729c-2.323.47-4.01 2.531-4.01 4.901v3.729h-3c-.552 0-1-.448-1-1zm32 0c0 .552-.448 1-1 1h-3v-3.728c0-2.37-1.687-4.432-4.011-4.901l-3.538-.71c-.502-.144-.914-.48-1.171-.918.548-.481.999-1.067 1.296-1.743h.424c1.654 0 3-1.346 3-3 0-.648-.211-1.244-.562-1.735.42-.378.762-.807 1.018-1.265h6.544c.552 0 1 .448 1 1z"/><path d="m7 42h14v2h-14z"/><path d="m7 46h14v2h-14z"/><path d="m7 50h14v2h-14z"/><path d="m7 54h2v2h-2z"/><path d="m11 54h2v2h-2z"/><path d="m19 54h2v2h-2z"/><path d="m15 54h2v2h-2z"/></g></g></svg>