<?xml version="1.0" encoding="iso-8859-1"?>
<!-- Generator: Adobe Illustrator 19.0.0, SVG Export Plug-In . SVG Version: 6.00 Build 0)  -->
<svg version="1.1" id="Capa_1" xmlns="http://www.w3.org/2000/svg" xmlns:xlink="http://www.w3.org/1999/xlink" x="0px" y="0px"
	 viewBox="0 0 512.001 512.001" style="enable-background:new 0 0 512.001 512.001;" xml:space="preserve">
<path style="fill:#E8D3AC;" d="M446.258,172.521V65.743c0-16.083,13.038-29.121,29.121-29.121l0,0
	c16.083,0,29.121,13.038,29.121,29.121v97.07c0,5.361-4.346,9.707-9.707,9.707h-48.535V172.521z"/>
<path style="fill:#43607E;" d="M40.504,388.017V75.45h384.074l0.039-0.143c6.284-22.851,27.062-38.685,50.761-38.685l0,0v351.394
	c0,10.722-8.692,19.414-19.414,19.414H59.918C49.196,407.431,40.504,398.739,40.504,388.017z"/>
<path style="fill:#F9E7C7;" d="M446.258,65.743l-0.077,281.508c-0.002,10.721-8.694,19.41-19.414,19.41H26.914
	c-10.722,0-19.414-8.692-19.414-19.414L7.581,65.743c0-16.083,13.038-29.121,29.121-29.121h156.284h253.272h29.121
	C459.296,36.622,446.258,49.66,446.258,65.743z"/>
<g>
	<path style="fill:#E8D3AC;" d="M475.379,36.622c-16.083,0-29.121,13.038-29.121,29.121l-0.077,281.508
		c-0.002,10.721-8.694,19.41-19.414,19.41h-22.65c10.721,0,19.412-8.69,19.414-19.41l0.077-281.508
		c0-16.083,13.038-29.121,29.121-29.121C452.729,36.622,475.379,36.622,475.379,36.622z"/>
	<path style="fill:#E8D3AC;" d="M271.531,114.278v19.414c0,5.361-4.346,9.707-9.707,9.707h-67.949c-5.361,0-9.707-4.346-9.707-9.707
		v-19.414c0-5.361,4.346-9.707,9.707-9.707h67.949C267.185,104.571,271.531,108.917,271.531,114.278z M388.016,182.228h-67.949
		c-5.361,0-9.707,4.346-9.707,9.707v19.414c0,5.361,4.346,9.707,9.707,9.707h67.949c5.361,0,9.707-4.346,9.707-9.707v-19.414
		C397.723,186.574,393.377,182.228,388.016,182.228z M135.633,182.228H67.684c-5.361,0-9.707,4.346-9.707,9.707v19.414
		c0,5.361,4.346,9.707,9.707,9.707h67.949c5.361,0,9.707-4.346,9.707-9.707v-19.414C145.34,186.574,140.994,182.228,135.633,182.228
		z M261.824,259.884h-67.949c-5.361,0-9.707,4.346-9.707,9.707v19.414c0,5.361,4.346,9.707,9.707,9.707h67.949
		c5.361,0,9.707-4.346,9.707-9.707v-19.414C271.531,264.23,267.185,259.884,261.824,259.884z"/>
</g>
<path style="fill:#5CE5AA;" d="M397.723,114.278v19.414c0,5.361-4.346,9.707-9.707,9.707h-67.949c-5.361,0-9.707-4.346-9.707-9.707
	v-19.414c0-5.361,4.346-9.707,9.707-9.707h67.949C393.377,104.571,397.723,108.917,397.723,114.278z M135.633,104.571H67.684
	c-5.361,0-9.707,4.346-9.707,9.707v19.414c0,5.361,4.346,9.707,9.707,9.707h67.949c5.361,0,9.707-4.346,9.707-9.707v-19.414
	C145.34,108.917,140.994,104.571,135.633,104.571z M261.824,182.228h-67.949c-5.361,0-9.707,4.346-9.707,9.707v19.414
	c0,5.361,4.346,9.707,9.707,9.707h67.949c5.361,0,9.707-4.346,9.707-9.707v-19.414C271.531,186.574,267.185,182.228,261.824,182.228
	z M135.633,259.884H67.684c-5.361,0-9.707,4.346-9.707,9.707v19.414c0,5.361,4.346,9.707,9.707,9.707h67.949
	c5.361,0,9.707-4.346,9.707-9.707v-19.414C145.34,264.23,140.994,259.884,135.633,259.884z"/>
<path style="fill:#43CC99;" d="M241.925,22.062v29.121c0,8.042-6.519,14.561-14.561,14.561c-8.041,0-14.561-6.519-14.561-14.561
	V22.062c0-8.042,6.519-14.561,14.561-14.561C235.406,7.501,241.925,14.02,241.925,22.062z M76.42,7.501
	c-8.041,0-14.561,6.519-14.561,14.561v29.121c0,8.042,6.519,14.561,14.561,14.561s14.561-6.519,14.561-14.561V22.062
	C90.98,14.02,84.462,7.501,76.42,7.501z M378.309,7.501c-8.041,0-14.561,6.519-14.561,14.561v29.121
	c0,8.042,6.519,14.561,14.561,14.561s14.561-6.519,14.561-14.561V22.062C392.869,14.02,386.35,7.501,378.309,7.501z"/>
<path style="fill:#2DB688;" d="M90.98,22.062v29.121c0,8.042-6.519,14.561-14.561,14.561c-0.109,0-0.215-0.014-0.323-0.016V7.517
	c0.109-0.002,0.215-0.016,0.324-0.016C84.462,7.501,90.98,14.02,90.98,22.062z M227.364,7.501c-0.109,0-0.215,0.014-0.323,0.016
	v58.209c0.109,0.002,0.214,0.016,0.323,0.016c8.042,0,14.561-6.519,14.561-14.561V22.062C241.925,14.02,235.406,7.501,227.364,7.501
	z M378.309,7.501c-0.109,0-0.215,0.014-0.323,0.016v58.209c0.109,0.002,0.214,0.016,0.323,0.016c8.042,0,14.561-6.519,14.561-14.561
	V22.062C392.869,14.02,386.35,7.501,378.309,7.501z"/>
<path style="fill:#43CC99;" d="M504.5,358.896c0,80.416-65.19,145.605-145.605,145.605S213.29,439.311,213.29,358.896
	s65.19-145.605,145.605-145.605S504.5,278.48,504.5,358.896z"/>
<path style="fill:#2DB688;" d="M470.525,358.896c0,61.652-49.979,111.631-111.631,111.631s-111.631-49.979-111.631-111.631
	s49.979-111.631,111.631-111.631S470.525,297.244,470.525,358.896z"/>
<path style="fill:#1C9C72;" d="M470.525,358.896c0,61.652-49.979,111.631-111.631,111.631c-4.091,0-8.127-0.231-12.103-0.662
	c55.928-6.062,99.466-53.428,99.466-110.969S402.72,253.99,346.791,247.927c3.976-0.431,8.012-0.662,12.103-0.662
	C420.547,247.265,470.525,297.243,470.525,358.896z"/>
<path style="fill:#A9F2C2;" d="M493.656,283.37L364.627,414.246c-3.783,3.837-9.967,3.859-13.776,0.049l-62.887-62.887
	c-3.791-3.791-3.791-9.937,0-13.728l13.728-13.728c3.791-3.791,9.937-3.791,13.728,0l36.633,36.633
	c1.879,1.879,4.92,1.898,6.822,0.041L465.079,256.96c3.586-3.501,9.248-3.696,13.066-0.45l14.884,12.649
	C497.329,272.813,497.618,279.351,493.656,283.37z"/>
<path d="M475.379,29.122h-75.01v-7.061c0-12.164-9.896-22.06-22.06-22.06s-22.061,9.896-22.061,22.061v7.061H249.425v-7.061
	c0-12.165-9.897-22.061-22.061-22.061s-22.061,9.896-22.061,22.061v7.061H98.48v-7.061c0-12.165-9.896-22.061-22.06-22.061
	S54.359,9.897,54.359,22.062v7.061H36.702c-20.193,0-36.621,16.428-36.621,36.619L0,347.247c0,14.84,12.074,26.914,26.914,26.914
	h6.09v13.855c0,14.84,12.074,26.914,26.914,26.914H193.39c4.142,0,7.5-3.358,7.5-7.5s-3.358-7.5-7.5-7.5H59.918
	c-6.569,0-11.914-5.345-11.914-11.914v-13.855h135.193c4.142,0,7.5-3.358,7.5-7.5s-3.358-7.5-7.5-7.5H26.914
	c-6.569,0-11.914-5.345-11.914-11.912l0.081-281.506c0-11.922,9.699-21.621,21.621-21.621h17.657v7.061
	c0,12.164,9.896,22.061,22.061,22.061s22.06-9.897,22.06-22.061v-7.061h106.823v7.061c0,12.164,9.896,22.061,22.061,22.061
	s22.061-9.896,22.061-22.061v-7.061h106.823v7.061c0,12.164,9.896,22.061,22.061,22.061s22.061-9.896,22.061-22.061v-7.061h45.469
	c-4.449,6.063-7.08,13.54-7.08,21.619l-0.047,146.089c-0.001,4.142,3.355,7.501,7.498,7.502c0.001,0,0.001,0,0.002,0
	c4.141,0,7.499-3.356,7.5-7.498l0.047-146.092c0-9.286,5.885-17.222,14.121-20.278v182.383c0,4.142,3.357,7.5,7.5,7.5
	s7.5-3.358,7.5-7.5v-47.826h11.914c9.488,0,17.207-7.719,17.207-17.207v-97.07C512,45.55,495.572,29.122,475.379,29.122z
	 M83.48,51.183c0,3.893-3.167,7.061-7.061,7.061s-7.061-3.167-7.061-7.061V22.062c0-3.893,3.167-7.061,7.061-7.061
	s7.061,3.167,7.061,7.061V51.183z M234.425,51.183c0,3.893-3.167,7.061-7.061,7.061s-7.061-3.167-7.061-7.061V22.062
	c0-3.893,3.167-7.061,7.061-7.061s7.061,3.167,7.061,7.061V51.183z M385.369,51.183c0,3.893-3.167,7.061-7.061,7.061
	s-7.061-3.167-7.061-7.061V22.062c0-3.893,3.167-7.061,7.061-7.061s7.061,3.167,7.061,7.061V51.183z M497,162.814
	c0,1.217-0.99,2.207-2.207,2.207h-11.914V45.465C491.115,48.521,497,56.457,497,65.743V162.814z M320.359,150.899h67.363
	c9.649,0,17.5-7.851,17.5-17.5v-18.828c0-9.649-7.851-17.5-17.5-17.5h-67.363c-9.649,0-17.5,7.851-17.5,17.5v18.828
	C302.859,143.049,310.71,150.899,320.359,150.899z M317.859,114.571c0-1.378,1.121-2.5,2.5-2.5h67.363c1.379,0,2.5,1.122,2.5,2.5
	v18.828c0,1.378-1.121,2.5-2.5,2.5h-67.363c-1.379,0-2.5-1.122-2.5-2.5V114.571z M194.168,150.899h67.363
	c9.649,0,17.5-7.851,17.5-17.5v-18.828c0-9.649-7.851-17.5-17.5-17.5h-67.363c-9.649,0-17.5,7.851-17.5,17.5v18.828
	C176.668,143.049,184.519,150.899,194.168,150.899z M191.668,114.571c0-1.378,1.122-2.5,2.5-2.5h67.363c1.379,0,2.5,1.122,2.5,2.5
	v18.828c0,1.378-1.121,2.5-2.5,2.5h-67.363c-1.378,0-2.5-1.122-2.5-2.5V114.571z M152.84,114.571c0-9.649-7.851-17.5-17.5-17.5
	H67.977c-9.649,0-17.5,7.851-17.5,17.5v18.828c0,9.649,7.851,17.5,17.5,17.5h67.363c9.649,0,17.5-7.851,17.5-17.5V114.571z
	 M137.84,133.399c0,1.378-1.122,2.5-2.5,2.5H67.977c-1.378,0-2.5-1.122-2.5-2.5v-18.828c0-1.378,1.122-2.5,2.5-2.5h67.363
	c1.378,0,2.5,1.122,2.5,2.5V133.399z M176.668,211.056c0,9.649,7.851,17.5,17.5,17.5h67.363c9.649,0,17.5-7.851,17.5-17.5v-18.828
	c0-9.649-7.851-17.5-17.5-17.5h-67.363c-9.649,0-17.5,7.851-17.5,17.5V211.056z M191.668,192.228c0-1.378,1.122-2.5,2.5-2.5h67.363
	c1.379,0,2.5,1.122,2.5,2.5v18.828c0,1.378-1.121,2.5-2.5,2.5h-67.363c-1.378,0-2.5-1.122-2.5-2.5V192.228z M152.84,192.228
	c0-9.649-7.851-17.5-17.5-17.5H67.977c-9.649,0-17.5,7.851-17.5,17.5v18.828c0,9.649,7.851,17.5,17.5,17.5h67.363
	c9.649,0,17.5-7.851,17.5-17.5V192.228z M137.84,211.056c0,1.378-1.122,2.5-2.5,2.5H67.977c-1.378,0-2.5-1.122-2.5-2.5v-18.828
	c0-1.378,1.122-2.5,2.5-2.5h67.363c1.378,0,2.5,1.122,2.5,2.5V211.056z M135.34,252.384H67.977c-9.649,0-17.5,7.851-17.5,17.5
	v18.828c0,9.649,7.851,17.5,17.5,17.5h67.363c9.649,0,17.5-7.851,17.5-17.5v-18.828C152.84,260.234,144.989,252.384,135.34,252.384z
	 M137.84,288.712c0,1.378-1.122,2.5-2.5,2.5H67.977c-1.378,0-2.5-1.122-2.5-2.5v-18.828c0-1.378,1.122-2.5,2.5-2.5h67.363
	c1.378,0,2.5,1.122,2.5,2.5V288.712z M476.733,341.295c0.857,5.786,1.292,11.708,1.292,17.601
	c0,65.689-53.441,119.131-119.131,119.131s-119.131-53.442-119.131-119.131c0-16.687,3.384-32.83,10.059-47.982
	c1.67-3.791,6.097-5.509,9.887-3.84c3.791,1.67,5.51,6.097,3.84,9.887c-5.83,13.235-8.786,27.344-8.786,41.935
	c0,57.418,46.713,104.131,104.131,104.131s104.131-46.713,104.131-104.131c0-5.16-0.38-10.342-1.13-15.402
	c-0.607-4.097,2.223-7.911,6.319-8.518C472.31,334.371,476.126,337.197,476.733,341.295z M498.996,288.636
	c3.348-3.395,5.147-8.074,4.938-12.838s-2.414-9.267-6.048-12.355l-14.884-12.648c-5.252-4.464-12.372-5.264-18.291-2.54
	c-17.151-16.418-37.477-28.402-59.563-35.372c0.045-0.508,0.075-1.019,0.075-1.534v-19.414c0-9.488-7.719-17.207-17.207-17.207
	h-67.949c-9.488,0-17.207,7.719-17.207,17.207v19.414c0,1.631,0.247,3.243,0.698,4.794c-20.741,8.068-39.3,20.532-54.533,36.241
	h-55.149c-9.488,0-17.207,7.719-17.207,17.207v19.414c0,9.488,7.719,17.207,17.207,17.207h21.256
	c-6.041,16.434-9.342,34.18-9.342,52.684C205.79,443.319,274.473,512,358.895,512S512,443.318,512,358.896
	c0-23.401-5.423-46.678-15.684-67.541L498.996,288.636z M470.316,262.328c0.82-0.802,2.099-0.845,2.972-0.103l14.884,12.648
	c0.639,0.542,0.761,1.226,0.776,1.585c0.016,0.359-0.046,1.05-0.634,1.646L359.286,408.98l0,0c-0.533,0.541-1.145,0.656-1.563,0.657
	c-0.003,0-0.006,0-0.009,0c-0.419,0-1.026-0.113-1.56-0.646l-62.887-62.886c-0.86-0.861-0.86-2.262-0.001-3.122l13.729-13.729
	c0.534-0.534,1.143-0.646,1.56-0.646s1.026,0.112,1.561,0.646l36.633,36.632c4.758,4.76,12.548,4.808,17.364,0.106L470.316,262.328z
	 M317.859,191.935c0-1.217,0.99-2.207,2.207-2.207h67.949c1.217,0,2.207,0.99,2.207,2.207v17.059
	c-10.197-2.111-20.68-3.203-31.328-3.203c-14.208,0-27.968,1.953-41.032,5.592c0-0.012-0.003-0.021-0.003-0.033V191.935z
	 M193.875,291.212c-1.217,0-2.207-0.99-2.207-2.207v-19.414c0-1.217,0.99-2.207,2.207-2.207h42.344
	c-5.57,7.448-10.47,15.424-14.63,23.828H193.875z M497,358.896c0,76.151-61.954,138.105-138.105,138.105
	S220.79,435.047,220.79,358.896s61.954-138.105,138.105-138.105c35.323,0,68.666,13.201,94.34,37.249l-13.596,13.271
	c-22.059-20.375-50.541-31.546-80.744-31.546c-35.233,0-68.467,15.474-91.178,42.454c-2.668,3.169-2.262,7.9,0.907,10.568
	c1.407,1.184,3.121,1.763,4.826,1.762c2.137,0,4.258-0.908,5.741-2.67c19.855-23.586,48.905-37.114,79.703-37.114
	c26.135,0,50.799,9.565,69.998,27.036l-73.385,71.632l-34.783-34.783c-3.25-3.25-7.571-5.04-12.168-5.04s-8.918,1.79-12.166,5.04
	l-13.729,13.729c-6.707,6.709-6.707,17.625,0,24.334l62.887,62.886c3.252,3.252,7.569,5.041,12.166,5.041c0.021,0,0.042,0,0.063,0
	c4.62-0.017,8.95-1.837,12.192-5.127l0,0l115.136-116.785C493,320.388,497,339.244,497,358.896z"/>
<g>
</g>
<g>
</g>
<g>
</g>
<g>
</g>
<g>
</g>
<g>
</g>
<g>
</g>
<g>
</g>
<g>
</g>
<g>
</g>
<g>
</g>
<g>
</g>
<g>
</g>
<g>
</g>
<g>
</g>
</svg>
